ModelForces
version=1
nRows=5
nColumns=94
inDegrees=yes

This file contains the forces exerted on a model during a simulation.

A force is a generalized force, meaning that it can be either a force (N) or a torque (Nm).

Units are S.I. units (second, meters, Newtons, ...)
Angles are in degrees.

endheader 
time	addbrev_l	addlong_l	addmagDist_l	addmagIsch_l	addmagMid_l	addmagProx_l	bflh_l	bfsh_l	edl_l	ehl_l	fdl_l	fhl_l	gaslat_l	gasmed_l	glmax1_l	glmax2_l	glmax3_l	glmed1_l	glmed2_l	glmed3_l	glmin1_l	glmin2_l	glmin3_l	grac_l	iliacus_l	perbrev_l	perlong_l	piri_l	psoas_l	recfem_l	sart_l	semimem_l	semiten_l	soleus_l	tfl_l	tibant_l	tibpost_l	vasint_l	vaslat_l	vasmed_l	addbrev_r	addlong_r	addmagDist_r	addmagIsch_r	addmagMid_r	addmagProx_r	bflh_r	bfsh_r	edl_r	ehl_r	fdl_r	fhl_r	gaslat_r	gasmed_r	glmax1_r	glmax2_r	glmax3_r	glmed1_r	glmed2_r	glmed3_r	glmin1_r	glmin2_r	glmin3_r	grac_r	iliacus_r	perbrev_r	perlong_r	piri_r	psoas_r	recfem_r	sart_r	semimem_r	semiten_r	soleus_r	tfl_r	tibant_r	tibpost_r	vasint_r	vaslat_r	vasmed_r	lumbar_extension	lumbar_bending	lumbar_rotation	arm_flex_l	arm_add_l	arm_rot_l	arm_flex_r	arm_add_r	arm_rot_r	elbow_flex_l	elbow_flex_r	pro_sup_l	pro_sup_r	
         10.10000000	         48.98463803	        543.89230070	          4.28985192	          3.16463447	          4.57768003	         11.93112969	          4.70418145	        135.43415574	         35.00077990	          5.51147278	          0.60015818	          5.87570940	         30.66975822	         57.33329857	          5.38927367	          6.37327803	          4.58605088	         12.75972857	          7.32638933	          6.56040393	         17.49514924	         24.11391579	         12.32827915	         21.74415825	        306.83411745	         11.26507587	         21.33772254	          6.90228271	        539.24170809	       1607.76141182	         68.66176995	          3.34233457	          5.62836688	         75.26946482	        315.74807115	         82.85395334	          0.06716524	         10.45938944	         32.09770453	         16.49488000	          1.55146041	          0.01842633	         10.20624906	         30.89890033	          7.15574490	          2.66336897	         43.36866096	          4.47399133	         64.38769426	          7.52212683	          4.21853570	          5.84712355	          0.00307817	          0.00105313	        198.88590512	        657.76042897	        236.52696423	        152.20508068	        131.46567153	        179.70458231	          2.71518727	         17.78084266	         45.83597636	          3.40708681	          0.21209549	          0.42780742	          1.80964041	        194.84028238	          2.75806855	        449.67556387	          1.25690679	         48.17237383	         11.23218755	          0.00348191	          0.11149624	        106.98009534	         22.54252653	        126.42251743	        964.62905852	        252.35242111	        -11.46584911	         35.52143439	         25.03788203	        117.75721385	         44.87851799	        -14.70372016	        101.39870871	        149.67652580	         10.21983389	         12.73503270	        -43.44975561	         -1.48293253	          2.31005388	
         10.11000000	         38.30263801	        512.61729652	          4.69719625	          3.97376568	          4.62662244	          9.94818122	          7.66771223	        109.63322746	         15.24458939	          9.15862484	          7.85276668	          9.57633742	          6.25130381	         37.28175232	          6.72411713	          8.71141713	          6.15534627	          8.28086966	          7.60428334	          7.79023321	         15.05612673	         20.87626910	         14.51247078	         17.44063091	        223.68361609	          8.00513146	         14.23033797	         14.38037112	        413.13680330	       1406.94384905	         55.00500901	          5.00599689	          5.99169888	         55.62503584	        244.25369562	         36.42164464	         91.29123732	         11.96750488	         36.17362121	         18.44817607	          4.09255628	          2.38217352	         49.03733775	         76.42042382	         12.90926414	          3.65446895	         39.37090544	          5.65607969	         94.47144501	         15.20118044	          3.07460248	          5.44497900	          4.39279468	          9.53458962	        163.36587491	        542.39065911	        191.90067422	        134.65983744	        105.55148220	        139.37272259	         11.56061131	         15.82328961	         35.99526128	          4.24947117	          2.30929525	         13.24962763	          0.20325633	        154.96842609	          4.69558310	         32.88563124	          1.49375087	         41.29346983	         11.37166194	         24.83742176	          0.11284728	        102.87309156	         17.58534070	         92.98019403	        726.46989106	        187.59135875	         -7.53823616	         25.82980380	         47.75576589	         50.84672817	         71.00028723	        -16.53912998	         38.61242019	        109.53332429	        -30.62998572	         22.94479749	        -47.35745085	         -0.18943805	          0.09736077	
         10.12000000	         31.33085998	        421.17744277	          4.93541680	          4.36823658	          4.70232067	          8.47033334	          9.44521628	         91.37752684	         31.03739317	          7.13427097	          3.74973873	          5.49855060	        115.19783429	         87.16774571	          7.27391472	          9.66112628	          6.88885558	        118.37121128	          7.55166713	          7.66142491	         25.34649814	         19.47058074	         13.17487692	         14.55173949	        185.06647112	          7.19415402	         15.09752832	         16.22361022	        311.64876615	       1252.50759793	         44.44317812	          6.32095023	          6.19365043	         43.12664044	        207.40343336	        116.25016312	          0.49366883	         11.91419859	         35.96237378	         18.33484463	          6.34933538	          4.19227134	         60.71014582	         60.14377291	         18.06917155	          4.25846355	         23.52460901	          6.32147283	        104.21943951	         12.41614013	          3.00995811	          6.82670175	         10.66921373	         26.42197847	        133.19415450	        439.15210722	        152.79602213	        118.69882734	         86.13893597	        109.41692718	         11.60172829	         16.20104136	         29.46684417	          5.06099149	          3.48424619	         10.51215259	         70.36951722	        123.63772906	          5.91048136	         28.02202569	          1.69544520	        163.43890688	         24.77287542	         69.31782839	          0.50112536	        158.76809509	         15.73021166	         66.60224095	        533.68452694	        136.01092046	        -35.23317394	         -0.81869365	         48.47555754	          0.67017770	         90.57186645	        -26.16259024	         -8.85321757	         44.87219970	        -60.99424374	         19.31952392	          2.75271207	         -0.48776254	         -1.34080408	
         10.13000000	         27.23847906	        365.61485058	          5.11436012	          4.49329927	          5.05683572	          7.52892280	         10.26241652	         77.92645169	         15.91805756	         10.47669985	          5.81444390	         10.30421763	         81.79772861	         72.84375234	          7.08300192	          9.41824336	          6.94969292	         53.55690218	         23.58888375	          7.31531654	         38.70666617	         39.56337759	         21.59224633	         12.50225471	        209.81212868	          7.20224061	         13.86305677	         12.89287927	        311.49671912	       1136.01691054	         46.97606294	          7.57918375	          6.48021042	         33.98903671	        187.89310731	         44.18326951	        110.71883800	         10.78250562	         32.72273807	         16.79190088	          5.40410247	          3.88005285	         46.96895430	         42.61044601	         14.33447987	          3.50831637	        174.55284127	          7.10792718	        105.31386352	         16.24827931	          2.37310329	          7.69842993	         16.50105789	         43.74644476	        112.50700524	        374.77233156	        118.95050184	        103.53849244	         71.07201146	         87.15828391	         10.85830557	         15.00088206	         28.38194406	          4.79166955	          4.68183519	         17.37134970	         59.15096914	         94.25702777	          7.32697351	         27.73751089	          2.07625962	        561.88680003	         30.79454061	         99.05101714	          1.22098687	        146.53144926	         13.89688542	         47.14741773	        384.72597926	         97.52366968	        -18.11339946	        -23.79048914	         40.98189246	        -32.85462574	        105.12960041	        -20.90832933	        -26.69959822	         -3.90354708	        -82.95713969	          8.20387612	         40.38672138	         -0.60169666	         -2.30894039	
         10.14000000	         24.07268326	        326.05244931	          5.30359221	          4.55451925	          5.54740521	          6.82591063	         11.04355960	         68.19062559	         33.17350435	         11.18625127	          3.83641396	          7.06602932	         79.23597039	        240.61218333	          6.64977013	          8.79232445	          6.82026724	        277.63994171	         35.55988336	          6.44518868	         42.68131095	         28.40838677	         13.03134811	         10.84200560	        230.36370625	          8.57892284	         18.37793067	          8.71930300	        294.63347037	       1026.20006384	         41.70138836	          9.32122270	          6.84840684	         18.94253251	        175.51316980	         93.04620994	         44.20576889	          9.02206205	         27.55421129	         14.37097896	          4.21293924	          3.05898394	         35.05783408	         29.90707068	         10.55461867	          2.77142309	        397.38568456	          7.98883406	         87.15244352	          0.03881494	          2.36298896	          7.83461726	         22.05441584	         64.40587893	        106.11494425	        305.67383278	         90.62774989	         90.05465637	         58.69938003	         69.72372059	          9.98015525	         13.54513100	         26.29879883	          4.58749189	          6.41115072	         19.25717407	         59.41731392	        122.06371594	          9.08020943	         28.32202037	          2.52417394	       1027.27016475	         56.88924042	        100.88838866	          2.29037819	        131.81849873	         10.27116947	         33.05090675	        274.50703306	         69.61236296	         41.21974729	        -72.68971913	         34.00234670	         12.65192804	        110.92291460	        -48.48809366	         -3.19736891	        -40.59961018	        -98.73668559	        -16.89644919	         68.22344426	         -3.56974771	         -3.81142142	
